<?xml version="1.0" encoding="UTF-8"?>
<svg version="1.1" xmlns="http://www.w3.org/2000/svg" width="183" height="38">
<path d="M0 0 C60.39 0 120.78 0 183 0 C183 12.54 183 25.08 183 38 C122.61 38 62.22 38 0 38 C0 25.46 0 12.92 0 0 Z " fill="#1B1A1A" transform="translate(0,0)"/>
<path d="M0 0 C1.65 0 3.3 0 5 0 C6.80078125 2.1875 6.80078125 2.1875 8.3125 5 C8.82425781 5.928125 9.33601562 6.85625 9.86328125 7.8125 C10.23839844 8.534375 10.61351562 9.25625 11 10 C13.10186897 7.46326158 14.94588108 5.10147297 16.5 2.1875 C16.995 1.465625 17.49 0.74375 18 0 C19.32 0 20.64 0 22 0 C22 7.59 22 15.18 22 23 C20.68 23 19.36 23 18 23 C17.67 19.04 17.34 15.08 17 11 C15.02 13.97 15.02 13.97 13 17 C11.1875 16.8125 11.1875 16.8125 9 16 C8.01 14.35 7.02 12.7 6 11 C5.67 14.96 5.34 18.92 5 23 C3.35 23 1.7 23 0 23 C0 15.41 0 7.82 0 0 Z " fill="#E9F0F0" transform="translate(4,5)"/>
<path d="M0 0 C0 5.61 0 11.22 0 17 C-10.546875 17.48828125 -10.546875 17.48828125 -14 17 C-17.02259112 14.12389957 -17.89716962 12.63983347 -18.5625 8.5 C-18 5 -18 5 -16.3125 2.0625 C-11.0151109 -1.23587435 -6.15499376 -0.31085827 0 0 Z " fill="#EAEEEC" transform="translate(48,11)"/>
<path d="M0 0 C1.32 0 2.64 0 4 0 C5.3417678 3.26743656 6.67194359 6.53946908 8 9.8125 C8.3815625 10.74126953 8.763125 11.67003906 9.15625 12.62695312 C9.5171875 13.51962891 9.878125 14.41230469 10.25 15.33203125 C10.58515625 16.15421143 10.9203125 16.9763916 11.265625 17.82348633 C12 20 12 20 12 23 C10.35 22.67 8.7 22.34 7 22 C6.67 21.01 6.34 20.02 6 19 C3.03 18.67 0.06 18.34 -3 18 C-3.33 19.65 -3.66 21.3 -4 23 C-5.65 23 -7.3 23 -9 23 C-3.76595745 3.76595745 -3.76595745 3.76595745 0 0 Z " fill="#DDA40A" transform="translate(105,5)"/>
<path d="M0 0 C1.32 0 2.64 0 4 0 C4.33 3.96 4.66 7.92 5 12 C5.70125 11.175 6.4025 10.35 7.125 9.5 C10 7 10 7 13.3125 6.6875 C14.199375 6.790625 15.08625 6.89375 16 7 C14.38405168 9.04119788 12.7143618 11.04072937 11 13 C10.34 13 9.68 13 9 13 C11.20919664 16.75563429 13.56384272 20.38776679 16 24 C13.9375 24.375 13.9375 24.375 11 24 C8.46427718 22.20822891 6.22825512 20.15761879 4 18 C4 19.98 4 21.96 4 24 C2.68 24 1.36 24 0 24 C0 16.08 0 8.16 0 0 Z " fill="#F4F2EA" transform="translate(79,4)"/>
<path d="M0 0 C1.65 0 3.3 0 5 0 C5.33 4.29 5.66 8.58 6 13 C7.65 13 9.3 13 11 13 C11 8.71 11 4.42 11 0 C12.65 0 14.3 0 16 0 C16 5.61 16 11.22 16 17 C14.35 16.67 12.7 16.34 11 16 C10.67 16.33 10.34 16.66 10 17 C6.625 17.3125 6.625 17.3125 3 17 C0.45452579 14.6284762 0.02304197 13.25438338 -0.29296875 9.765625 C-0.24076172 8.02539062 -0.24076172 8.02539062 -0.1875 6.25 C-0.16042969 5.07953125 -0.13335937 3.9090625 -0.10546875 2.703125 C-0.07066406 1.81109375 -0.03585938 0.9190625 0 0 Z " fill="#D79F0B" transform="translate(142,11)"/>
<path d="M0 0 C2.475 0.495 2.475 0.495 5 1 C5.33 0.67 5.66 0.34 6 0 C12.25493999 -0.46332889 12.25493999 -0.46332889 14.71484375 1.06640625 C16.69489406 4.04550929 16.28442175 6.66600966 16.1875 10.1875 C16.16042969 11.45980469 16.13335937 12.73210938 16.10546875 14.04296875 C16.07066406 15.01878906 16.03585938 15.99460937 16 17 C14.35 17 12.7 17 11 17 C10.67 12.71 10.34 8.42 10 4 C8.35 4.33 6.7 4.66 5 5 C4.67 8.96 4.34 12.92 4 17 C2.68 17 1.36 17 0 17 C0 11.39 0 5.78 0 0 Z " fill="#D49A0B" transform="translate(162,11)"/>
<path d="M0 0 C1.65 0 3.3 0 5 0 C5.08706892 3.27066566 5.14041241 6.54103365 5.1875 9.8125 C5.22520508 11.2056543 5.22520508 11.2056543 5.26367188 12.62695312 C5.27817383 13.9659668 5.27817383 13.9659668 5.29296875 15.33203125 C5.31653442 16.56530151 5.31653442 16.56530151 5.34057617 17.82348633 C5 20 5 20 3.6496582 21.8112793 C2 23 2 23 -0.6875 22.6875 C-1.450625 22.460625 -2.21375 22.23375 -3 22 C-3 21.34 -3 20.68 -3 20 C-2.01 20 -1.02 20 0 20 C0 13.4 0 6.8 0 0 Z " fill="#D39D0B" transform="translate(133,11)"/>
<path d="M0 0 C2.475 0.495 2.475 0.495 5 1 C5.33 0.67 5.66 0.34 6 0 C7.66617115 -0.04063832 9.33388095 -0.042721 11 0 C10.67 1.32 10.34 2.64 10 4 C8.68 4.33 7.36 4.66 6 5 C5.67 8.96 5.34 12.92 5 17 C3.35 17 1.7 17 0 17 C0 11.39 0 5.78 0 0 Z " fill="#D6A00A" transform="translate(120,11)"/>
<path d="M0 0 C1.32 0 2.64 0 4 0 C4 7.92 4 15.84 4 24 C2.68 24 1.36 24 0 24 C0 16.08 0 8.16 0 0 Z " fill="#F9F9EE" transform="translate(61,4)"/>
<path d="M0 0 C1.32 0 2.64 0 4 0 C4 7.92 4 15.84 4 24 C2.68 24 1.36 24 0 24 C0 16.08 0 8.16 0 0 Z " fill="#EEF9F9" transform="translate(52,4)"/>
<path d="M0 0 C2.31 0.33 4.62 0.66 7 1 C6.52433594 1.79664063 6.52433594 1.79664063 6.0390625 2.609375 C4.7629651 5.54535848 4.58292979 8.06174329 4.375 11.25 C4.30023438 12.32765625 4.22546875 13.4053125 4.1484375 14.515625 C4.09945312 15.33546875 4.05046875 16.1553125 4 17 C2.68 17 1.36 17 0 17 C0 11.39 0 5.78 0 0 Z " fill="#DCAE09" transform="translate(162,11)"/>
<path d="M0 0 C1.010625 0.0825 2.02125 0.165 3.0625 0.25 C5.0625 3.25 5.0625 3.25 4.8125 5.8125 C4.0625 8.25 4.0625 8.25 2.0625 10.25 C-2.49305556 9.69444444 -2.49305556 9.69444444 -3.9375 8.25 C-4.0625 4.75 -4.0625 4.75 -3.9375 1.25 C-2.9375 0.25 -2.9375 0.25 0 0 Z " fill="#26272A" transform="translate(38.9375,14.75)"/>
<path d="M0 0 C1.32 0 2.64 0 4 0 C4 5.61 4 11.22 4 17 C2.68 17 1.36 17 0 17 C0 11.39 0 5.78 0 0 Z " fill="#FEF5E8" transform="translate(70,11)"/>
<path d="M0 0 C1.32 0 2.64 0 4 0 C3.67 1.65 3.34 3.3 3 5 C1.68 4.67 0.36 4.34 -1 4 C-0.67 2.68 -0.34 1.36 0 0 Z " fill="#D4A00B" transform="translate(134,3)"/>
<path d="M0 0 C1.32 0 2.64 0 4 0 C3.67 1.65 3.34 3.3 3 5 C1.68 4.67 0.36 4.34 -1 4 C-0.67 2.68 -0.34 1.36 0 0 Z " fill="#E4EBEA" transform="translate(70,3)"/>
<path d="M0 0 C2.35953094 2.35953094 2.49141413 3.77895617 3 7 C1.35 7 -0.3 7 -2 7 C-1.34 4.69 -0.68 2.38 0 0 Z " fill="#2B1C16" transform="translate(106,12)"/>
<path d="M0 0 C0.99 0 1.98 0 3 0 C2.67 1.32 2.34 2.64 2 4 C0.35 4.33 -1.3 4.66 -3 5 C-1.125 1.125 -1.125 1.125 0 0 Z " fill="#EAAF09" transform="translate(128,11)"/>
</svg>
